<svg xmlns="http://www.w3.org/2000/svg" width="254" height="255" viewBox="0 0 254 255" version="1.1">
	<path d="M 115.888 1.970 C 93.977 4.181, 69.599 13.454, 52.160 26.210 C 44.429 31.865, 31.578 44.938, 24.843 54 C 14.882 67.402, 5.754 88.250, 2.343 105.391 C 0.403 115.142, -0.552 140.094, 0.828 144.993 C 1.371 146.922, 2.320 151.290, 2.937 154.701 C 5.711 170.042, 14.679 190.692, 24.565 204.500 C 30.850 213.279, 42.609 225.002, 52.114 231.964 C 62.334 239.450, 79.484 248.031, 91.500 251.670 C 100.118 254.280, 101.539 254.405, 125 254.627 C 153.102 254.894, 158.566 254.151, 174.654 247.881 C 217.085 231.343, 248.267 192.076, 253.968 148 C 255.245 138.128, 255.239 119.727, 253.954 108.515 C 252.754 98.038, 247.725 82.247, 241.891 70.636 C 224.820 36.659, 189.837 10.646, 151.654 3.535 C 142.115 1.758, 125.280 1.021, 115.888 1.970 M 113.500 4.607 C 83.035 9.131, 59.329 20.616, 39.472 40.472 C 22.062 57.882, 10.674 79.144, 5.282 104.308 C 2.860 115.612, 2.860 140.388, 5.282 151.692 C 16.072 202.044, 53.492 239.528, 102.978 249.556 C 113.107 251.608, 116.214 251.266, 117.096 248 C 117.755 245.559, 117.789 245.577, 118.511 248.750 L 119.250 252 128.375 251.980 C 139.224 251.957, 148.728 250.695, 159.121 247.900 L 166.742 245.850 167.394 240.175 C 167.752 237.054, 169.600 226.625, 171.500 217 C 173.400 207.375, 175.385 197.250, 175.912 194.500 C 176.827 189.723, 176.850 189.817, 176.442 196.625 C 176.065 202.905, 172.154 225.461, 169.028 239.383 C 168.425 242.068, 168.149 244.482, 168.414 244.747 C 169.343 245.676, 191.577 234.201, 198.814 229.057 L 206.129 223.858 203.709 220.679 C 195.751 210.227, 191.280 192.394, 188.430 159.750 C 187.899 153.671, 187.625 153, 185.670 153.001 C 183.592 153.001, 183.500 153.413, 183.500 162.751 C 183.500 175.579, 182.713 176.857, 161.173 199 C 138.201 222.616, 137.695 223.097, 136.386 222.595 C 135.757 222.353, 133.750 223.694, 131.928 225.574 C 130.023 227.540, 128.344 228.557, 127.979 227.967 C 127.134 226.599, 122.307 229.117, 120.312 231.965 C 118.873 234.019, 118.703 234.041, 116.899 232.408 C 115.091 230.772, 115 230.791, 115 232.786 C 115 236.359, 113.219 236.195, 112.003 232.509 C 111.366 230.579, 110.542 228.969, 110.172 228.931 C 105.709 228.474, 103.529 227.929, 102.652 227.052 C 101.262 225.662, 99.695 225.698, 100.562 227.100 C 100.997 227.804, 100.389 227.753, 98.871 226.958 C 94.409 224.621, 90.996 221.861, 89.873 219.680 C 89.082 218.146, 89.836 218.533, 92.418 220.988 C 95.396 223.820, 96.256 224.204, 96.983 223.028 C 97.758 221.774, 98.121 221.791, 99.689 223.149 C 101.851 225.022, 106 226.183, 106 224.915 C 106 223.748, 110.769 224.360, 114.126 225.958 C 116.354 227.019, 117.165 226.938, 119.475 225.424 C 120.972 224.443, 122.574 222.709, 123.035 221.570 C 123.725 219.865, 123.884 219.809, 123.937 221.250 C 124.026 223.726, 125.365 223.464, 132.612 219.550 C 136.125 217.652, 139.002 216.415, 139.004 216.800 C 139.006 217.185, 139.899 216.037, 140.989 214.250 C 142.079 212.463, 143.427 211, 143.985 211 C 144.543 211, 145.020 210.438, 145.045 209.750 C 145.070 209.063, 145.752 207.150, 146.560 205.500 C 147.369 203.850, 147.812 203.287, 147.546 204.250 C 146.637 207.541, 149.711 206.040, 154.624 200.793 C 159.032 196.087, 165.791 189.364, 169.658 185.842 C 170.468 185.104, 172.221 182.925, 173.554 181 C 174.887 179.075, 177.375 175.475, 179.083 173 L 182.188 168.500 181.344 150.500 C 180.880 140.600, 180.500 127.039, 180.500 120.365 L 180.500 108.231 174.603 107.615 C 165.331 106.648, 158.522 106.890, 156.792 108.250 C 155.571 109.209, 155.101 111.980, 154.768 120.170 C 154.447 128.098, 153.885 131.526, 152.583 133.514 C 148.622 139.559, 127.077 145.484, 118 143.024 C 112.423 141.512, 106.627 135.733, 101.508 126.581 C 98.559 121.307, 97.348 120, 95.414 120 C 91.613 120, 89.003 123.347, 88.980 128.250 C 88.960 132.557, 87.359 145.205, 86.473 148.055 C 85.821 150.152, 73.843 153.869, 67 154.098 C 56.617 154.446, 51.619 150.269, 45.897 136.465 C 44.627 133.400, 42.783 130.767, 41.499 130.181 C 39.386 129.219, 36.487 121.640, 37.564 119.896 C 37.810 119.498, 41.159 117.937, 45.006 116.428 C 48.853 114.919, 52 113.334, 52 112.907 C 52 112.480, 51.553 110.955, 51.007 109.519 C 50.056 107.017, 50.274 106.785, 56.257 103.955 C 59.691 102.331, 63.400 101.031, 64.500 101.068 C 65.600 101.104, 64.700 101.703, 62.500 102.399 C 60.300 103.095, 56.997 104.447, 55.160 105.404 C 52.267 106.911, 51.910 107.503, 52.491 109.820 C 52.860 111.292, 53.319 112.653, 53.511 112.844 C 53.702 113.036, 57.017 112.474, 60.877 111.596 C 70.657 109.372, 80.135 109.479, 83.059 111.847 C 85.222 113.599, 85.667 113.611, 91.681 112.093 C 96.849 110.789, 98.370 109.921, 99.904 107.398 C 101.048 105.516, 103.495 103.615, 106.143 102.550 C 114.784 99.076, 131.298 95.941, 144 95.366 C 156.221 94.812, 156.844 94.888, 171.869 98.795 L 187.238 102.792 190.585 100.818 C 192.589 99.635, 194.732 99.098, 195.930 99.478 C 197.821 100.078, 197.947 99.583, 198.273 90.306 L 198.616 80.500 198.692 91.223 C 198.766 101.503, 198.689 101.904, 196.847 100.918 C 194.141 99.470, 191.382 100.607, 186.354 105.241 L 182 109.255 182.011 125.877 C 182.025 146.563, 182.503 149.817, 185.750 151.296 C 187.717 152.192, 188.839 152.072, 191.355 150.697 L 194.500 148.978 191.910 151.239 L 189.320 153.500 190.157 164.500 C 191.242 178.769, 194.211 194.289, 197.996 205.488 C 201.163 214.858, 205.169 221.997, 207.264 222.004 C 209.383 222.011, 223.706 206.254, 229.376 197.678 C 239.198 182.822, 245.006 169.013, 248.718 151.692 C 251.140 140.388, 251.140 115.612, 248.718 104.308 C 243.326 79.144, 231.938 57.882, 214.528 40.472 C 197.355 23.299, 176.086 11.818, 151.500 6.448 C 144.640 4.949, 119.422 3.728, 113.500 4.607 M 112.750 14.662 C 113.438 14.940, 114.563 14.940, 115.250 14.662 C 115.938 14.385, 115.375 14.158, 114 14.158 C 112.625 14.158, 112.063 14.385, 112.750 14.662 M 132.750 14.662 C 133.438 14.940, 134.563 14.940, 135.250 14.662 C 135.938 14.385, 135.375 14.158, 134 14.158 C 132.625 14.158, 132.063 14.385, 132.750 14.662 M 158.083 21.365 C 158.313 21.565, 159.625 22.265, 161 22.920 C 163.357 24.042, 163.389 24.022, 161.559 22.555 C 159.966 21.279, 156.711 20.164, 158.083 21.365 M 77.872 27.750 C 76.629 29.336, 76.664 29.371, 78.250 28.128 C 79.916 26.821, 80.445 26, 79.622 26 C 79.415 26, 78.627 26.788, 77.872 27.750 M 68.716 35.919 C 62.958 42.022, 54.968 54.084, 55.018 56.596 C 55.028 57.093, 56.310 55.190, 57.867 52.367 C 61.902 45.049, 64.675 41.291, 70.864 34.750 C 73.856 31.587, 76.065 29, 75.773 29 C 75.481 29, 72.305 32.113, 68.716 35.919 M 174 31.378 C 174 31.585, 174.787 32.373, 175.750 33.128 C 177.336 34.371, 177.371 34.336, 176.128 32.750 C 174.821 31.084, 174 30.555, 174 31.378 M 187.997 45.750 C 189.305 47.538, 190.532 49, 190.723 49 C 191.483 49, 189.003 45.249, 187.363 43.918 C 186.283 43.040, 186.525 43.739, 187.997 45.750 M 192.086 52.500 C 192.190 54.394, 193.856 57.584, 193.914 56 C 193.945 55.175, 193.533 53.825, 193 53 C 192.467 52.175, 192.055 51.950, 192.086 52.500 M 194.079 59.583 C 194.127 60.748, 194.364 60.985, 194.683 60.188 C 194.972 59.466, 194.936 58.603, 194.604 58.271 C 194.272 57.939, 194.036 58.529, 194.079 59.583 M 195.199 63.500 C 195.199 64.600, 195.560 66.625, 196 68 C 196.634 69.980, 196.801 70.084, 196.801 68.500 C 196.801 67.400, 196.440 65.375, 196 64 C 195.366 62.020, 195.199 61.916, 195.199 63.500 M 197.252 75.500 C 197.263 77.700, 197.468 78.482, 197.707 77.238 C 197.946 75.994, 197.937 74.194, 197.687 73.238 C 197.437 72.282, 197.241 73.300, 197.252 75.500 M 117.083 77.360 C 117.313 77.558, 119.975 77.972, 123 78.280 C 126.423 78.628, 127.745 78.519, 126.500 77.990 C 124.584 77.176, 116.222 76.616, 117.083 77.360 M 113.813 78.683 C 114.534 78.972, 115.397 78.936, 115.729 78.604 C 116.061 78.272, 115.471 78.036, 114.417 78.079 C 113.252 78.127, 113.015 78.364, 113.813 78.683 M 109.813 79.683 C 110.534 79.972, 111.397 79.936, 111.729 79.604 C 112.061 79.272, 111.471 79.036, 110.417 79.079 C 109.252 79.127, 109.015 79.364, 109.813 79.683 M 133.500 80.967 C 136.250 81.969, 140.525 83.726, 143 84.872 L 147.500 86.956 134.500 87.165 L 121.500 87.373 136.500 87.952 C 144.750 88.271, 151.656 88.443, 151.847 88.336 C 153.056 87.652, 132.215 78.925, 129.727 79.073 C 129.052 79.113, 130.750 79.966, 133.500 80.967 M 104 81 C 102.172 82.181, 103.751 82.181, 106.500 81 C 107.819 80.433, 107.989 80.122, 107 80.086 C 106.175 80.055, 104.825 80.467, 104 81 M 97.009 82.750 C 97.015 83.162, 98.365 85.848, 100.011 88.718 C 102.091 92.344, 103.461 93.760, 104.502 93.361 C 106.304 92.669, 106.532 91.654, 104.750 92.255 C 103.331 92.734, 99.079 86.409, 99.031 83.750 C 99.014 82.787, 98.550 82, 98 82 C 97.450 82, 97.004 82.338, 97.009 82.750 M 114.500 89.047 C 113.106 89.678, 113.712 89.768, 116.500 89.344 C 118.700 89.009, 120.688 88.569, 120.917 88.367 C 121.776 87.610, 116.420 88.177, 114.500 89.047 M 67.688 90.726 C 73.358 91.058, 73.912 91.295, 74.310 93.557 C 74.693 95.736, 74.729 95.702, 74.622 93.262 C 74.502 90.549, 74.384 90.499, 68 90.432 L 61.500 90.363 67.688 90.726 M 108 91 C 106.172 92.181, 107.751 92.181, 110.500 91 C 111.819 90.433, 111.989 90.122, 111 90.086 C 110.175 90.055, 108.825 90.467, 108 91 M 54.354 94.750 C 50.522 99.570, 49.687 101, 50.705 101 C 51.158 101, 52.647 99.155, 54.014 96.900 C 55.381 94.645, 57.400 92.423, 58.500 91.963 C 59.956 91.354, 60.069 91.110, 58.917 91.063 C 58.047 91.029, 55.993 92.688, 54.354 94.750 M 75 98.443 C 75 99.413, 73.609 100.010, 70.750 100.268 L 66.500 100.651 71.250 100.825 C 75.392 100.978, 76 100.744, 76 99 C 76 97.900, 75.775 97, 75.500 97 C 75.225 97, 75 97.649, 75 98.443 M 126.560 100.613 C 116.359 102.454, 115.460 103.370, 124.750 102.455 C 130.220 101.917, 132 102.045, 132 102.976 C 132 103.817, 133.301 104.086, 136.083 103.821 C 139.504 103.494, 140.732 103.923, 143.657 106.466 C 146.150 108.632, 146.953 110, 146.467 111.250 C 145.537 113.640, 144.350 113.447, 143.656 110.794 C 142.959 108.127, 142.534 108.477, 140.466 113.426 L 138.869 117.250 141.434 116.606 C 142.845 116.252, 144 116.344, 144 116.812 C 144 118.225, 139.280 120.291, 137.941 119.463 C 137.075 118.928, 136.943 119.098, 137.510 120.015 C 138.112 120.990, 137.866 121.163, 136.582 120.670 C 135.622 120.301, 133.186 119.968, 131.168 119.930 C 128.206 119.873, 127.885 119.694, 129.500 119 C 130.892 118.402, 131.033 118.119, 129.966 118.070 C 127.994 117.980, 125 112.927, 125 109.689 C 125 106.061, 121.848 107.217, 119.176 111.827 C 117.551 114.629, 117.040 115.017, 117.023 113.461 C 117.010 112.340, 117.851 109.753, 118.892 107.711 C 119.933 105.670, 120.631 104, 120.444 104 C 120.256 104, 118.884 105.129, 117.395 106.510 C 114.557 109.140, 112.800 109.150, 114.980 106.524 C 115.676 105.686, 115.852 104.993, 115.372 104.985 C 114.893 104.976, 115.175 104.490, 116 103.904 C 117.137 103.096, 116.773 102.998, 114.500 103.496 C 109.446 104.605, 104.865 107.202, 103.786 109.570 C 102.522 112.344, 104.008 119.500, 105.849 119.500 C 107.602 119.500, 113.839 129.624, 114.606 133.715 C 115.411 138.003, 117.416 139.003, 125.184 138.988 C 136.274 138.967, 147.102 134.990, 149.806 129.945 C 151.571 126.652, 150.744 110.889, 148.513 105.320 C 145.905 98.810, 141.629 97.893, 126.560 100.613 M 135.813 102.683 C 136.534 102.972, 137.397 102.936, 137.729 102.604 C 138.061 102.272, 137.471 102.036, 136.417 102.079 C 135.252 102.127, 135.015 102.364, 135.813 102.683 M 125.813 103.683 C 126.534 103.972, 127.397 103.936, 127.729 103.604 C 128.061 103.272, 127.471 103.036, 126.417 103.079 C 125.252 103.127, 125.015 103.364, 125.813 103.683 M 47.035 106.934 C 45.769 109.300, 45.734 110, 46.883 110 C 47.369 110, 47.982 108.875, 48.245 107.500 C 48.818 104.501, 48.433 104.322, 47.035 106.934 M 190.081 108.718 C 186.146 113.491, 183.492 121.182, 184.882 123.780 C 185.437 124.817, 186.590 126.245, 187.445 126.955 C 189.567 128.715, 189.397 131.680, 187 134.727 C 184.633 137.736, 184.388 141.551, 186.509 142.365 C 188.648 143.186, 192.603 141.476, 193.407 139.383 C 194.047 137.714, 193.978 137.710, 192.214 139.306 C 190.033 141.280, 185.990 141.570, 186.022 139.750 C 186.034 139.063, 186.924 137.375, 188 136 C 190.561 132.725, 190.561 127.818, 188 125.500 C 185.381 123.130, 185.459 120.360, 188.186 118.901 C 190.067 117.894, 190.659 118.078, 192.436 120.221 C 193.571 121.591, 195.036 123.564, 195.691 124.606 C 196.610 126.067, 196.896 126.152, 196.941 124.978 C 197.031 122.664, 190.970 115.797, 189.378 116.409 C 187.008 117.318, 187.826 113.512, 190.500 111.187 C 191.875 109.991, 193 108.560, 193 108.007 C 193 106.322, 195.582 106.881, 197.478 108.976 C 198.461 110.062, 200.111 113.325, 201.145 116.226 L 203.024 121.500 202.636 116.756 C 202.194 111.364, 198.073 105, 195.022 105 C 193.990 105, 191.766 106.673, 190.081 108.718 M 203.031 107.500 C 203.031 108.050, 203.467 109.175, 204 110 C 204.533 110.825, 204.969 111.050, 204.969 110.500 C 204.969 109.950, 204.533 108.825, 204 108 C 203.467 107.175, 203.031 106.950, 203.031 107.500 M 130 110 C 130 110.550, 130.477 111, 131.059 111 C 131.641 111, 131.840 110.550, 131.500 110 C 131.160 109.450, 130.684 109, 130.441 109 C 130.198 109, 130 109.450, 130 110 M 63.331 114.481 C 53.822 116.207, 53.638 116.362, 55.879 120.804 C 59.743 128.464, 59.713 128.541, 52.990 128.161 C 45.769 127.753, 45.729 127.904, 50.467 137.791 C 56.292 149.945, 61.868 153.744, 62.150 145.750 L 62.300 141.500 62.900 146 L 63.500 150.500 68 150.199 C 74.479 149.765, 81.760 147.181, 83.499 144.697 C 85.260 142.184, 85.703 126.447, 83.984 127.510 C 83.425 127.856, 83.183 128.488, 83.448 128.915 C 83.712 129.342, 81.803 130.687, 79.206 131.903 C 75.620 133.583, 73.886 133.893, 71.992 133.190 C 69.677 132.331, 69.815 132.212, 73.944 131.512 C 78.371 130.762, 78.378 130.754, 75.832 129.420 C 74.426 128.683, 72.709 126.713, 72.017 125.040 C 71.324 123.368, 70.432 122, 70.034 122 C 68.457 122, 65.987 125.803, 66.573 127.329 C 66.951 128.314, 66.065 127.913, 64.308 126.304 L 61.423 123.660 63.962 120.894 C 67.072 117.504, 70.814 116.011, 76.315 115.965 C 80.447 115.930, 80.468 115.911, 78 114.500 C 74.994 112.782, 72.713 112.779, 63.331 114.481 M 132.768 115.168 C 133.350 115.750, 134.415 116.028, 135.137 115.788 C 135.886 115.538, 135.432 115.085, 134.080 114.731 C 132.417 114.296, 132.026 114.426, 132.768 115.168 M 0.400 129.500 C 0.401 137.750, 0.556 140.992, 0.744 136.704 C 0.932 132.417, 0.931 125.667, 0.742 121.704 C 0.552 117.742, 0.399 121.250, 0.400 129.500 M 49.250 118.989 C 47.462 120.079, 46 121.382, 46 121.885 C 46 122.670, 54.920 124.061, 55.824 123.417 C 56.145 123.187, 53.153 116.997, 52.724 117.004 C 52.601 117.006, 51.038 117.899, 49.250 118.989 M 75 122 C 75 122.550, 75.450 123, 76 123 C 76.550 123, 77 122.550, 77 122 C 77 121.450, 76.550 121, 76 121 C 75.450 121, 75 121.450, 75 122 M 77 127 C 77 127.550, 77.873 128, 78.941 128 C 80.009 128, 81.160 127.550, 81.500 127 C 81.851 126.433, 81.010 126, 79.559 126 C 78.152 126, 77 126.450, 77 127 M 60.645 136 C 61.436 140.313, 62.005 141.126, 61.985 137.917 C 61.976 136.588, 61.527 134.825, 60.986 134 C 60.294 132.945, 60.193 133.538, 60.645 136 M 113.280 151 C 113.518 151.825, 113.329 153.538, 112.859 154.807 C 112.374 156.119, 112.384 156.881, 112.882 156.573 C 114.294 155.700, 114.835 152.336, 113.801 150.861 C 113.029 149.758, 112.930 149.784, 113.280 151 M 101.441 156.570 C 99.618 158.046, 99.742 158.107, 103.500 157.581 C 105.700 157.274, 108.063 157.017, 108.750 157.011 C 109.438 157.005, 110 156.550, 110 156 C 110 154.412, 103.580 154.840, 101.441 156.570 M 85.441 157.230 C 86.509 157.928, 88.489 159.560, 89.841 160.855 C 92.096 163.013, 97 164.559, 97 163.111 C 97 162.532, 89.892 158.628, 85.500 156.794 C 83.550 155.980, 83.548 155.991, 85.441 157.230 M 63.063 158.055 C 63.029 158.911, 64.092 162.736, 65.426 166.555 C 66.760 170.375, 67.864 172.825, 67.879 172 C 67.917 169.940, 63.142 156.115, 63.063 158.055 M 131.628 169.700 C 130.049 170.539, 125.549 171.689, 121.628 172.255 C 106.890 174.384, 93.607 176.841, 96.500 176.903 C 99.221 176.962, 124.869 173.148, 134.396 171.269 C 136.538 170.846, 138.338 170.050, 138.396 169.500 C 138.561 167.918, 134.772 168.029, 131.628 169.700 M 85 177.500 C 85 179.069, 86.738 179.421, 89.412 178.395 C 91.631 177.544, 90.360 176, 87.441 176 C 85.938 176, 85 176.576, 85 177.500 M 69 185.118 C 69 186.654, 71.638 190.680, 76.250 196.182 C 80.237 200.940, 83.673 204.659, 83.885 204.447 C 84.525 203.809, 80.860 198.733, 77.409 195.479 C 75.627 193.798, 73.006 190.236, 71.584 187.562 C 69.527 183.693, 69 183.194, 69 185.118 M 110.750 186.080 C 108.803 187.214, 108.401 189, 110.092 189 C 110.693 189, 112.329 188.100, 113.727 187 C 115.911 185.282, 116.004 185.004, 114.385 185.030 C 113.348 185.047, 111.713 185.519, 110.750 186.080 M 105 188 C 105 188.550, 105.675 189, 106.500 189 C 107.325 189, 108 188.550, 108 188 C 108 187.450, 107.325 187, 106.500 187 C 105.675 187, 105 187.450, 105 188 M 172.206 193 C 171.638 194.375, 168.210 202.659, 164.587 211.409 C 158.152 226.950, 156.213 233.046, 159.955 225.970 C 163.636 219.010, 174.111 192.837, 173.679 191.680 C 173.437 191.031, 172.774 191.625, 172.206 193 M 129 224.059 C 129 224.641, 129.450 224.840, 130 224.500 C 130.550 224.160, 131 223.684, 131 223.441 C 131 223.198, 130.550 223, 130 223 C 129.450 223, 129 223.477, 129 224.059" stroke="none" fill="black" fill-rule="evenodd"/>
</svg>